<svg width="46" height="33" viewBox="0 0 46 33" fill="none" xmlns="http://www.w3.org/2000/svg">
<path d="M1.1101 0.242837C0.637871 0.431728 3.43189 10.9467 4.88793 16.1806C8.70512 13.8981 16.0798 9.02629 15.0409 7.7985C13.7422 6.26375 1.70039 0.00672232 1.1101 0.242837Z" fill="black" stroke="black" stroke-width="0.236115"/>
<path fill-rule="evenodd" clip-rule="evenodd" d="M45.4996 8.2706C44.1774 6.94836 28.7355 7.71967 21.1798 8.2706L25.5325 17.8333C27.9757 14.4332 39.8619 10.0415 45.4996 8.2706Z" fill="black"/>
<path d="M28.9716 25.389C35.0319 20.2338 46.8219 9.59284 45.4996 8.2706C39.8619 10.0415 27.9757 14.4332 25.5325 17.8333L28.9716 25.389Z" fill="#D593A0"/>
<path d="M45.4996 8.2706C44.1774 6.94836 28.7355 7.71967 21.1798 8.2706L25.5325 17.8333M45.4996 8.2706C46.8219 9.59284 35.0319 20.2338 28.9716 25.389L25.5325 17.8333M45.4996 8.2706C39.8619 10.0415 27.9757 14.4332 25.5325 17.8333" stroke="black" stroke-width="0.236115"/>
<path d="M30.7424 19.9581C30.7424 24.5027 28.0834 28.4706 24.1312 30.5935C22.5729 31.4306 20.8135 31.9808 18.9367 32.1664C18.4713 32.2125 17.9986 32.2361 17.52 32.2361C10.2175 32.2361 4.29761 26.739 4.29761 19.9581C4.29761 13.1772 10.2175 7.68018 17.52 7.68018C24.8226 7.68018 30.7424 13.1772 30.7424 19.9581Z" fill="black"/>
<path d="M18.9367 32.1664C18.4713 32.2125 17.9986 32.2361 17.52 32.2361C10.2175 32.2361 4.29761 26.739 4.29761 19.9581C4.29761 13.1772 10.2175 7.68018 17.52 7.68018C24.8226 7.68018 30.7424 13.1772 30.7424 19.9581C30.7424 24.5027 28.0834 28.4706 24.1312 30.5935M18.9367 32.1664C19.1728 31.1271 20.259 29.0485 22.7146 29.0485M18.9367 32.1664C20.8135 31.9808 22.5729 31.4306 24.1312 30.5935M22.7146 29.0485L23.0687 29.993L23.541 29.099M22.7146 29.0485C23.0393 29.0485 23.3125 29.0665 23.541 29.099M24.1312 30.5935C24.6093 30.1466 25.04 29.3119 23.541 29.099" stroke="black" stroke-width="0.236115"/>
<path d="M18.9367 32.1668C18.4713 32.2128 17.9986 32.2364 17.52 32.2364C12.1671 32.2364 7.55719 29.2828 5.47717 25.035L16.7586 22.3196L30.3886 22.7919C29.5417 26.121 27.2354 28.9265 24.1312 30.5939C22.5729 31.4309 20.8135 31.9812 18.9367 32.1668Z" fill="white"/>
<path d="M30.7424 19.9585C30.7424 20.9337 30.62 21.8823 30.3886 22.7919M4.29761 19.9585C4.29761 21.7689 4.71958 23.4878 5.47717 25.035M18.9367 32.1668C18.4713 32.2128 17.9986 32.2364 17.52 32.2364C12.1671 32.2364 7.55719 29.2828 5.47717 25.035M18.9367 32.1668C19.1728 31.1275 20.259 29.0489 22.7146 29.0489M18.9367 32.1668C20.8135 31.9812 22.5729 31.4309 24.1312 30.5939M22.7146 29.0489L23.0687 29.9934L23.541 29.0994M22.7146 29.0489C23.0393 29.0489 23.3125 29.0669 23.541 29.0994M24.1312 30.5939C24.6093 30.147 25.04 29.3123 23.541 29.0994M24.1312 30.5939C27.2354 28.9265 29.5417 26.121 30.3886 22.7919M5.47717 25.035L16.7586 22.3196L30.3886 22.7919" stroke="black" stroke-width="0.236115"/>
<path d="M14.5155 25.625C12.2063 25.3417 6.8988 23.6181 4.5337 22.7917C4.79416 24.0939 5.21965 25.417 5.83233 26.5261C7.72125 26.9637 12.2157 26.5799 14.2267 26.3334C14.3346 26.1082 14.4312 25.8719 14.5155 25.625Z" fill="white"/>
<path d="M8.54764 15.9443C4.88787 15.9443 4.17953 21.0208 4.5337 22.7917C6.8988 23.6181 12.2063 25.3417 14.5155 25.625C14.7785 24.8552 14.9227 23.9832 14.9227 23.0278C14.9227 19.2461 11.4817 15.9443 8.54764 15.9443Z" fill="#E0E0E0"/>
<path d="M9.72823 29.2848C11.6833 29.2848 13.3393 28.1857 14.2267 26.3334C12.2157 26.5799 7.72125 26.9637 5.83233 26.5261C6.71775 28.1289 7.99411 29.2848 9.72823 29.2848Z" fill="#E0E0E0"/>
<path d="M4.5337 22.7917C4.17953 21.0208 4.88787 15.9443 8.54764 15.9443C11.4817 15.9443 14.9227 19.2461 14.9227 23.0278C14.9227 23.9832 14.7785 24.8552 14.5155 25.625M4.5337 22.7917C6.8988 23.6181 12.2063 25.3417 14.5155 25.625M4.5337 22.7917C4.79416 24.0939 5.21965 25.417 5.83233 26.5261M14.5155 25.625C14.4312 25.8719 14.3346 26.1082 14.2267 26.3334M14.2267 26.3334C13.3393 28.1857 11.6833 29.2848 9.72823 29.2848C7.99411 29.2848 6.71775 28.1289 5.83233 26.5261M14.2267 26.3334C12.2157 26.5799 7.72125 26.9637 5.83233 26.5261" stroke="black" stroke-width="0.236115"/>
<path d="M22.7146 15C18.4114 15 14.9229 18.3828 14.9229 22.5557C14.9229 23.6485 15.1135 24.6872 15.4724 25.6251C18.6739 24.72 26.1395 22.839 30.389 22.5557C30.4392 22.2843 30.4785 22.0086 30.5064 21.7293C30.5064 17.5564 27.0179 15 22.7146 15Z" fill="#D9D9D9"/>
<path d="M15.8457 26.4515C16.9996 28.6447 19.1728 30.1113 22.0063 30.1113C24.7586 30.1113 27.2743 28.6142 28.8536 26.2995C25.3591 26.65 18.7256 26.5469 15.8457 26.4515Z" fill="#D9D9D9"/>
<path d="M30.389 22.5557C26.1395 22.839 18.6739 24.72 15.4724 25.6251C15.5815 25.9104 15.7061 26.1863 15.8457 26.4515C18.7256 26.5469 25.3591 26.65 28.8536 26.2995C29.5975 25.2092 30.1337 23.9376 30.389 22.5557Z" fill="white"/>
<path d="M15.4724 25.6251C15.1135 24.6872 14.9229 23.6485 14.9229 22.5557C14.9229 18.3828 18.4114 15 22.7146 15C27.0179 15 30.5064 17.5564 30.5064 21.7293C30.4785 22.0086 30.4392 22.2843 30.389 22.5557M15.4724 25.6251C18.6739 24.72 26.1395 22.839 30.389 22.5557M15.4724 25.6251C15.5815 25.9104 15.7061 26.1863 15.8457 26.4515M30.389 22.5557C30.1337 23.9376 29.5975 25.2092 28.8536 26.2995M15.8457 26.4515C16.9996 28.6447 19.1728 30.1113 22.0063 30.1113C24.7586 30.1113 27.2743 28.6142 28.8536 26.2995M15.8457 26.4515C18.7256 26.5469 25.3591 26.65 28.8536 26.2995" stroke="black" stroke-width="0.236115"/>
<ellipse cx="9.96442" cy="25.1529" rx="0.472229" ry="0.472229" fill="black"/>
<ellipse cx="21.534" cy="24.6807" rx="0.472229" ry="0.472229" fill="black"/>
<path fill-rule="evenodd" clip-rule="evenodd" d="M22.7795 29.0488C20.324 29.0488 19.2378 31.1274 19.0017 32.1667C20.8785 31.9811 22.6379 31.4309 24.1962 30.5938C24.6743 30.1469 25.105 29.3122 23.6059 29.0993L23.1337 29.9933L22.7795 29.0488Z" fill="#BE7463"/>
<path d="M22.7795 29.0488L23.1337 29.9933L23.6059 29.0993C23.3775 29.0668 23.1043 29.0488 22.7795 29.0488Z" fill="white"/>
<path d="M22.7795 29.0488C20.324 29.0488 19.2378 31.1274 19.0017 32.1667C20.8785 31.9811 22.6379 31.4309 24.1962 30.5938C24.6743 30.1469 25.105 29.3122 23.6059 29.0993M22.7795 29.0488L23.1337 29.9933L23.6059 29.0993M22.7795 29.0488C23.1043 29.0488 23.3775 29.0668 23.6059 29.0993" stroke="black" stroke-width="0.236115"/>
<path d="M24.758 11.9307C24.64 12.4029 24.5455 13.3237 25.1122 13.2293C25.6789 13.1348 25.7418 12.7177 25.7025 12.5209M26.1747 13.4654C26.096 13.8589 26.033 14.6696 26.4108 14.764C26.7886 14.8585 27.1192 14.4886 27.2372 14.2918" stroke="#727272" stroke-width="0.236115" stroke-linecap="round" stroke-linejoin="round"/>
<g style="mix-blend-mode:multiply" opacity="0.2">
<path d="M18.9368 32.1666C18.4713 32.2126 17.9987 32.2362 17.5201 32.2362C14.0433 31.882 12.2725 31.6459 9.43909 29.5209C13.2661 30.1112 20.9626 29.6862 24.1313 23.7361C28.0921 16.2985 24.0251 11.1622 21.4809 8.24072C26.8484 9.80357 30.7425 14.4587 30.7425 19.9583C30.7425 24.5029 28.0835 28.4708 24.1313 30.5937C22.5729 31.4307 20.8135 31.981 18.9368 32.1666Z" fill="#848484"/>
</g>
<path d="M13.335 27.0416C13.335 27.4193 14.3581 27.3564 14.8697 27.2777C14.6336 27.0416 14.1141 26.5693 13.9252 26.5693C13.6891 26.5693 13.335 26.5693 13.335 27.0416Z" fill="black"/>
</svg>
